# xmcd
#
# Track frame offsets: 
#        150
#        16175
#        34287
#        49900
#        62062
#        72337
#        81687
#        94387
#        113350
#        128375
#        138975
#        155150
#        171212
#        182675
#        194062
#        206375
#        219137
#
# Disc length: 3062 seconds
#
# Revision: 4
# Processed by: cddbd v1.5.2PL0 Copyright (c) Steve Scherf et al.
# Submitted via: ExactAudioCopy v1.0b3
#
DISCID=f30bf411
DTITLE=Jack Jersey - Golden Memories
DYEAR=1990
DGENRE=Oldies
TTITLE0=A broken heart with a smile  (1989)
TTITLE1=Sri-Lanka (my Shangrila) (1980)
TTITLE2=Blue brown eyed lady (1976)
TTITLE3=She was dynamite (1977)
TTITLE4=Silvery moon (1975)
TTITLE5=Rub it in (with the Jordaniers) (1974)
TTITLE6=On this night of a thousand stars (1977)
TTITLE7=Shanah (1981)
TTITLE8=Pappa was s poor man (1974)
TTITLE9=In the still of the night (1974)
TTITLE10=Puerto de Llansa (Lady Rose) (1982)
TTITLE11=I'm calling (1973)
TTITLE12=I wonder (with the Jordaniers) (1974)
TTITLE13=Woman (1980)
TTITLE14=Gone girl (1975)
TTITLE15=Me and Bobby McGee (1976)
TTITLE16=Don't break this heart (1973)
EXTD=
EXTT0=
EXTT1=
EXTT2=
EXTT3=
EXTT4=
EXTT5=
EXTT6=
EXTT7=
EXTT8=
EXTT9=
EXTT10=
EXTT11=
EXTT12=
EXTT13=
EXTT14=
EXTT15=
EXTT16=
PLAYORDER=
